<?xml version="1.0" encoding="UTF-8"?>
<svg id="Layer_2" data-name="Layer 2" xmlns="http://www.w3.org/2000/svg" viewBox="0 0 8808.11 1097.19">
  <g id="Layer_1-2" data-name="Layer 1">
    <g>
      <path d="M126.26,922.2c21.68-33.08,21.08-47.09-2.09-79.7C43.44,728.88-6.23,604.6,.63,460.35,11.41,233.57,196.36,70.93,410.31,100.71c43.07,6,53.89,11.27,72.59,36.04-10.95,0-21.15,.23-31.33-.04-144.47-3.82-230.48,79.92-235.84,229.71-5.86,163.75,97.55,334.28,246.81,404.17,93.27,43.68,189.99,62.87,290.82,31.36,45.7-14.28,86.02-39.53,116.38-78.49,45.18-57.99,52.85-122.94,25.19-190.84-26.25-64.43-88.95-95.77-157.2-82.68-51.71,9.92-95.13,37.46-136.92,68.45-31.34,23.24-61.59,48.17-93.83,69.96-21.74,14.7-50.95,17.5-71.9,33.46,14.71-19.61,30.29-38.5,45.19-57.96,44.77-58.48,90.61-116.13,133.77-175.86,29-40.14,40.41-87.27,24.11-135.57-8.75-25.94-27.47-48.26-43.97-76.06,14.69,1.19,30.4-.17,44.56,4.06,82.51,24.64,163.35,25.3,243.06-11.96,12.19-5.7,26.71-6.06,44.45-9.79-11.63,21.52-21.42,37.55-29.26,54.54-30.63,66.45-28.68,131.87,3.98,197.71,27.54,55.51,57.77,110.58,77.09,169.29,81.39,247.29-71.65,486.77-325.36,513.72-144.03,15.3-273.77-23.69-390.81-110.75-40.65-30.24-49.79-30.22-91.14,.31-32.75,24.18-65.17,48.89-98.57,72.07-14.72,10.22-34.16,13.12-49.07,23.05,34.38-52.15,68.92-104.18,103.16-156.42Z"/>
      <g>
        <path d="M1400,1076.54V117.19h160.56V925.98h423.71v150.56h-584.27Z"/>
        <path d="M2367.33,1097.19c-53.3,0-97.27-8.89-131.91-26.65-34.64-17.76-62.19-40.41-82.61-67.95-20.44-27.52-35.54-56.84-45.3-87.94-9.79-31.08-16.11-60.5-18.99-88.27-2.89-27.75-4.33-50.3-4.33-67.62V357.03h162.56v346.43c0,22.21,1.54,47.2,4.66,74.95,3.1,27.77,10.33,54.42,21.65,79.95,11.33,25.55,28.19,46.53,50.63,62.96,22.42,16.45,52.73,24.65,90.94,24.65,20.42,0,40.64-3.33,60.63-9.99,19.99-6.66,38.08-18.09,54.3-34.31,16.2-16.2,29.19-38.52,38.97-66.95,9.76-28.42,14.66-64.39,14.66-107.93l95.27,40.64c0,61.29-11.89,116.82-35.64,166.55-23.78,49.76-58.75,89.4-104.93,118.92-46.2,29.52-103.05,44.3-170.55,44.3Zm235.17-20.65v-223.18h-19.32V357.03h161.22v719.51h-141.9Z"/>
        <path d="M2929.6,1075.21V355.7h143.24v223.18h19.32v496.33h-162.56Zm498.99,0v-346.43c0-22.65-1.56-47.74-4.66-75.28-3.12-27.52-10.33-54.07-21.65-79.61-11.33-25.52-28.21-46.51-50.63-62.96-22.44-16.43-52.76-24.65-90.94-24.65-20.44,0-40.64,3.33-60.63,9.99s-38.1,18.11-54.3,34.31-29.21,38.43-38.97,66.62c-9.79,28.21-14.66,64.29-14.66,108.26l-95.27-40.64c0-61.29,11.87-116.8,35.64-166.55,23.75-49.74,58.73-89.38,104.93-118.92,46.18-29.52,103.03-44.3,170.55-44.3,53.3,0,97.27,8.89,131.91,26.65,34.64,17.78,62.17,40.43,82.61,67.95,20.42,27.54,35.52,56.86,45.3,87.94,9.76,31.1,16.09,60.52,18.99,88.27,2.87,27.77,4.33,50.3,4.33,67.62v401.73h-162.56Z"/>
        <path d="M3965.55,1096.53c-51.96,0-95.93-9.89-131.91-29.65-35.98-19.76-63.19-46.07-81.61-78.95-18.45-32.85-27.65-69.06-27.65-108.59,0-34.64,5.77-65.83,17.32-93.6,11.53-27.75,29.31-51.74,53.3-71.95,23.98-20.19,55.07-36.75,93.27-49.63,28.86-9.33,62.73-17.76,101.6-25.32,38.85-7.54,81.05-14.53,126.58-20.99,45.51-6.43,93.14-13.43,142.9-20.99l-57.29,32.64c.44-49.74-10.66-86.38-33.31-109.93-22.65-23.53-60.85-35.31-114.59-35.31-32.44,0-63.75,7.56-93.94,22.65-30.21,15.11-51.3,41.1-63.29,77.95l-146.57-45.97c17.76-60.83,51.63-109.7,101.6-146.57,49.97-36.85,117.36-55.3,202.2-55.3,63.96,0,120.25,10.45,168.89,31.31,48.63,20.88,84.71,55.09,108.26,102.6,12.87,25.32,20.65,51.19,23.32,77.61,2.66,26.44,4,55.19,4,86.27v441.7h-140.57v-155.89l23.32,25.32c-32.44,51.96-70.29,90.06-113.59,114.26s-97.39,36.31-162.22,36.31Zm31.98-127.91c36.41,0,67.5-6.43,93.27-19.32,25.75-12.87,46.3-28.65,61.62-47.3s25.65-36.18,30.98-52.63c8.43-20.42,13.2-43.85,14.32-70.29,1.1-26.42,1.67-47.84,1.67-64.29l49.3,14.66c-48.43,7.56-89.94,14.22-124.58,19.99-34.64,5.79-64.41,11.22-89.27,16.32-24.88,5.12-46.86,10.78-65.96,16.99-18.65,6.66-34.43,14.45-47.3,23.32-12.89,8.89-22.78,19.11-29.65,30.65-6.89,11.55-10.33,25.11-10.33,40.64,0,17.78,4.43,33.44,13.32,46.97,8.87,13.55,21.86,24.32,38.97,32.31,17.09,7.99,38.31,11.99,63.62,11.99Z"/>
        <path d="M4531.82,1076.54V357.03h141.9v175.21l-17.32-22.65c8.87-23.98,20.76-45.84,35.64-65.62,14.86-19.76,32.75-36.08,53.63-48.97,17.76-11.99,37.41-21.42,58.96-28.31,21.53-6.87,43.64-11.1,66.29-12.66,22.65-1.54,44.64-.54,65.96,3v149.9c-21.32-6.2-45.86-8.2-73.62-6-27.77,2.23-52.76,9.99-74.95,23.32-22.21,11.99-40.31,27.31-54.3,45.97-13.99,18.65-24.32,39.87-30.98,63.62-6.66,23.78-9.99,49.42-9.99,76.95v365.75h-161.22Z"/>
        <path d="M5418.53,1095.19c-70.18,0-133.37-12.22-189.54-36.64-56.19-24.42-102.39-59.4-138.57-104.93-36.2-45.51-59.19-99.6-68.95-162.22l166.55-25.32c14.2,56.86,43.41,100.83,87.61,131.91,44.18,31.1,95.14,46.63,152.9,46.63,34.19,0,66.39-5.33,96.6-15.99,30.19-10.66,54.73-26.19,73.62-46.63,18.86-20.42,28.31-45.51,28.31-75.28,0-13.32-2.23-25.65-6.66-36.97-4.46-11.33-10.99-21.42-19.65-30.31-8.66-8.87-19.78-16.99-33.31-24.32-13.55-7.33-29.21-13.66-46.97-18.99l-247.83-73.28c-21.32-6.2-44.3-14.53-68.95-24.98-24.65-10.43-47.97-24.86-69.95-43.3-21.99-18.42-39.97-41.97-53.96-70.62s-20.99-64.06-20.99-106.26c0-61.73,15.66-113.59,46.97-155.56,31.31-41.97,73.49-73.39,126.58-94.27,53.07-20.86,112.03-31.08,176.88-30.65,65.73,.46,124.35,11.66,175.88,33.64,51.51,21.99,94.6,53.86,129.25,95.6,34.64,41.76,59.06,92.17,73.28,151.23l-172.55,29.98c-7.12-33.75-20.78-62.5-40.97-86.27-20.22-23.75-44.87-41.85-73.95-54.3-29.11-12.43-60.08-19.09-92.94-19.99-31.98-.44-61.62,4.33-88.94,14.32-27.31,9.99-49.3,24.32-65.96,42.97s-24.98,40.43-24.98,65.29c0,23.55,7.1,42.76,21.32,57.63,14.2,14.89,31.85,26.65,52.96,35.31,21.09,8.66,42.51,15.89,64.29,21.65l171.88,47.97c23.53,6.22,49.97,14.66,79.28,25.32,29.31,10.66,57.5,25.55,84.61,44.64,27.09,19.11,49.4,44.2,66.95,75.28,17.53,31.1,26.32,70.62,26.32,118.59s-10.33,93.39-30.98,130.91c-20.65,37.54-48.53,68.74-83.61,93.6-35.1,24.88-75.18,43.53-120.25,55.96-45.09,12.43-92.27,18.65-141.57,18.65Z"/>
        <path d="M5859.54,482.94v-125.91h501.66v125.91h-501.66Zm501.66,593.6c-47.53,8.87-94.06,12.76-139.57,11.66-45.53-1.12-86.27-9.56-122.25-25.32-35.98-15.76-63.29-40.74-81.94-74.95-16.45-31.08-25.11-62.83-25.98-95.27-.9-32.42-1.33-69.06-1.33-109.93V157.16h159.89V773.41c0,28.88,.33,54.19,1,75.95,.67,21.78,5.2,39.54,13.66,53.3,15.99,26.65,41.51,41.53,76.61,44.64,35.08,3.12,75.05,1.33,119.92-5.33v134.58Z"/>
        <path d="M6797.57,1096.53c-71.95,0-134.8-16.22-188.54-48.63-53.76-32.42-95.39-77.16-124.92-134.24-29.54-57.07-44.3-122.69-44.3-196.87s15.09-141.67,45.3-198.53c30.19-56.84,72.16-101.26,125.91-133.24,53.73-31.98,115.92-47.97,186.54-47.97s135.45,16.22,189.2,48.63c53.73,32.44,95.48,77.18,125.25,134.24,29.75,57.09,44.64,122.71,44.64,196.87s-14.99,140.47-44.97,197.53c-29.98,57.09-71.85,101.72-125.58,133.91-53.76,32.19-116.59,48.3-188.54,48.3Zm0-150.56c63.96,0,111.47-21.32,142.57-63.96,31.08-42.64,46.63-97.7,46.63-165.22s-15.78-125.35-47.3-166.89c-31.54-41.51-78.84-62.29-141.9-62.29-43.1,0-78.51,9.66-106.26,28.98-27.77,19.32-48.3,46.2-61.62,80.61-13.32,34.43-19.99,74.28-19.99,119.59,0,69.74,15.86,125.37,47.63,166.89,31.75,41.53,78.49,62.29,140.24,62.29Z"/>
        <path d="M7303.23,1076.54V357.03h141.9v175.21l-17.32-22.65c8.87-23.98,20.76-45.84,35.64-65.62,14.86-19.76,32.75-36.08,53.63-48.97,17.76-11.99,37.41-21.42,58.96-28.31,21.53-6.87,43.64-11.1,66.29-12.66,22.65-1.54,44.64-.54,65.96,3v149.9c-21.32-6.2-45.86-8.2-73.62-6-27.77,2.23-52.76,9.99-74.95,23.32-22.21,11.99-40.31,27.31-54.3,45.97-13.99,18.65-24.32,39.87-30.98,63.62-6.66,23.78-9.99,49.42-9.99,76.95v365.75h-161.22Z"/>
        <path d="M8148.64,1096.53c-72.85,0-136.8-15.78-191.87-47.3-55.09-31.52-98.06-75.28-128.91-131.24-30.87-55.96-46.3-120.36-46.3-193.2,0-78.61,15.09-146.9,45.3-204.86,30.19-57.96,72.16-102.93,125.91-134.91,53.73-31.98,115.92-47.97,186.54-47.97,74.62,0,138.01,17.45,190.2,52.3,52.17,34.87,90.94,84.07,116.25,147.57,25.32,63.52,34.85,138.36,28.65,224.51h-159.23v-58.63c-.46-78.16-14.22-135.24-41.31-171.22-27.11-35.98-69.74-53.96-127.91-53.96-65.75,0-114.59,20.32-146.57,60.96-31.98,40.64-47.97,100.06-47.97,178.21,0,72.85,15.99,129.25,47.97,169.22s78.61,59.96,139.9,59.96c39.51,0,73.62-8.76,102.26-26.32,28.65-17.53,50.74-42.97,66.29-76.28l158.56,47.97c-27.54,64.85-70.08,115.25-127.58,151.23-57.52,35.98-120.92,53.96-190.2,53.96Zm-247.83-335.11v-121.25h495v121.25h-495Z"/>
      </g>
      <path d="M8642.05,337.04c-2.38-3.47-4.14-5.32-5.07-7.52-7-16.51-13.46-33.27-20.82-49.62-14.08-31.3-33.74-58.19-64.52-75.04-15.71-8.6-32.16-15.88-48.41-23.46-6.92-3.23-14.28-5.49-21.23-8.65-2.25-1.02-3.84-3.47-5.74-5.27,1.83-1.84,3.32-4.42,5.53-5.42,20.14-9.08,40.72-17.26,60.57-26.92,30.83-15,53.59-38.61,68.31-69.44,9.37-19.62,17.39-39.87,25.97-59.86,1.18-2.75,1.98-6.56,5.65-5.72,2.11,.48,4.27,3.3,5.31,5.57,10.39,22.81,19.7,46.15,30.98,68.5,13.51,26.76,34.97,46.48,61.61,59.86,19.84,9.96,40.53,18.23,60.85,27.24,.91,.4,2.09,.47,2.75,1.1,1.67,1.58,4.36,3.41,4.32,5.1-.04,1.69-2.56,4.03-4.52,4.89-18.26,8.01-36.83,15.33-54.93,23.67-38.7,17.82-65.07,47.57-81.63,86.38-6.71,15.74-13.05,31.64-19.72,47.39-.92,2.16-2.81,3.91-5.27,7.23Z"/>
    </g>
  </g>
</svg>