<?xml version="1.0" encoding="UTF-8"?>
<svg id="Layer_2" data-name="Layer 2" xmlns="http://www.w3.org/2000/svg" viewBox="0 0 3000 3000">
  <g id="Layer_1-2" data-name="Layer 1">
    <path d="M378.79,2475.03c65.04-99.23,63.23-141.28-6.27-239.09C130.31,1895.05-18.69,1522.23,1.89,1089.48,34.24,409.13,589.07-78.79,1230.92,10.56c129.21,17.99,161.68,33.8,217.78,108.12-32.84,0-63.44,.7-94-.11-433.42-11.46-691.44,239.77-707.52,689.12-17.58,491.24,292.66,1002.84,740.43,1212.52,279.8,131.03,569.97,188.6,872.45,94.07,137.1-42.84,258.06-118.59,349.13-235.47,135.55-173.96,158.55-368.81,75.56-572.52-78.74-193.29-266.85-287.32-471.59-248.03-155.13,29.77-285.38,112.39-410.76,205.36-94.03,69.72-184.77,144.51-281.48,209.89-65.21,44.09-152.86,52.51-215.7,100.37,44.14-58.82,90.88-115.5,135.57-173.87,134.3-175.44,271.82-348.39,401.3-527.58,87.01-120.41,121.24-261.82,72.34-406.72-26.26-77.81-82.41-144.79-131.91-228.17,44.08,3.58,91.2-.51,133.67,12.17,247.53,73.91,490.06,75.91,729.17-35.87,36.58-17.1,80.13-18.17,133.34-29.36-34.88,64.57-64.26,112.64-87.77,163.62-91.9,199.34-86.04,395.61,11.95,593.12,82.62,166.52,173.32,331.75,231.28,507.87,244.16,741.86-214.96,1460.31-976.08,1541.17-432.08,45.9-821.32-71.06-1172.43-332.26-121.94-90.71-149.36-90.67-273.41,.94-98.26,72.55-195.52,146.67-295.71,216.22-44.16,30.65-102.49,39.36-147.22,69.15,103.13-156.44,206.76-312.53,309.49-469.26Z"/>
  </g>
</svg>