<?xml version="1.0" encoding="UTF-8"?>
<svg id="Layer_2" data-name="Layer 2" xmlns="http://www.w3.org/2000/svg" viewBox="0 0 3636.73 745.32">
  <defs>
    <style>
      .cls-1 {
        fill: #fff;
      }
    </style>
  </defs>
  <g id="Layer_1-2" data-name="Layer 1">
    <g>
      <path class="cls-1" d="M686.52,573.67c-66.26,103.24-182.07,171.65-313.86,171.65C166.85,745.32,0,578.48,0,372.66S166.85,0,372.66,0c16.65,0,33.04,1.09,49.11,3.21C262.16,25.62,139.35,162.72,139.35,328.51c0,181.43,147.08,328.51,328.51,328.51,83.97,0,160.59-31.51,218.66-83.34Z"/>
      <path class="cls-1" d="M3532.04,130.98c-7.41,4.28-14.43,8.33-21.44,12.38-5.87,3.39-11.73,6.78-17.6,10.15-5.08,2.92-9.45,1.74-12.38-3.32-3.71-6.41-7.42-12.82-11.12-19.23-3.04-5.27-1.88-9.61,3.36-12.64,12-6.93,24.01-13.86,36.02-20.8,.82-.47,1.64-.95,2.75-1.6-.74-.47-1.28-.85-1.84-1.17-12.28-7.09-24.56-14.18-36.84-21.27-5.37-3.1-6.51-7.37-3.4-12.76,3.7-6.42,7.4-12.83,11.12-19.24,2.88-4.97,7.26-6.16,12.23-3.3,12.34,7.1,24.68,14.23,37.01,21.35,.59,.34,1.19,.66,2.12,1.17,0-.97,0-1.63,0-2.29,0-14.13,0-28.26,0-42.39,0-6.31,3.12-9.39,9.48-9.4,7.29,0,14.58,0,21.86,0,5.95,0,9.14,3.2,9.15,9.16,0,14.07,0,28.13,0,42.2v2.69c.85-.45,1.48-.75,2.09-1.1,12.34-7.12,24.68-14.23,36.99-21.38,2.56-1.49,5.27-2.25,7.93-.79,1.63,.89,3.21,2.33,4.18,3.91,3.99,6.54,7.74,13.22,11.55,19.86,2.76,4.81,1.56,9.3-3.28,12.11-12.32,7.15-24.66,14.25-37,21.38-.59,.34-1.16,.7-1.99,1.2,.76,.48,1.31,.86,1.88,1.19,12.22,7.06,24.45,14.12,36.67,21.19,5.47,3.16,6.58,7.41,3.41,12.91-3.67,6.36-7.34,12.72-11.02,19.07-2.93,5.06-7.31,6.23-12.38,3.31-12.28-7.08-24.56-14.18-36.84-21.27-.6-.34-1.2-.67-2.19-1.22,0,.94,0,1.59,0,2.24,0,14.19,0,28.39,0,42.58,0,6.09-3.17,9.28-9.22,9.28-7.35,0-14.7,0-22.05,0-6.06,0-9.22-3.19-9.22-9.28,0-14.13,0-28.26,0-42.39,0-.68,0-1.35,0-2.46Z"/>
      <g>
        <path class="cls-1" d="M475.44,492.15V93.85h75.23V421.89h171.49v70.26h-246.72Z"/>
        <path class="cls-1" d="M880.37,501c-23.42,0-42.5-3.97-57.26-11.89-14.75-7.93-26.23-17.98-34.44-30.15-8.21-12.17-14.06-24.85-17.56-38.03-3.51-13.18-5.63-25.21-6.36-36.1-.74-10.88-1.11-18.81-1.11-23.79V193.42h76.34v141.06c0,6.82,.37,15.54,1.11,26.14,.73,10.61,3.04,21.26,6.91,31.95,3.87,10.7,10.19,19.64,18.95,26.83,8.76,7.19,21.16,10.79,37.2,10.79,6.45,0,13.37-1.01,20.74-3.04,7.37-2.03,14.29-5.95,20.74-11.76,6.45-5.81,11.76-14.38,15.9-25.72,4.15-11.34,6.22-26.23,6.22-44.67l43.15,20.47c0,23.61-4.8,45.73-14.38,66.38-9.59,20.65-24.02,37.34-43.29,50.06-19.27,12.72-43.56,19.08-72.88,19.08Zm96.81-8.85v-99.02h-9.4V193.42h75.79V492.15h-66.38Z"/>
        <path class="cls-1" d="M1120.44,492.15V193.42h66.94v99.02h9.4v199.7h-76.34Zm204.13,0v-141.06c0-6.82-.37-15.53-1.11-26.14-.74-10.6-3.04-21.25-6.91-31.95-3.87-10.69-10.19-19.64-18.95-26.83-8.76-7.19-21.16-10.79-37.2-10.79-6.46,0-13.37,1.02-20.74,3.04-7.38,2.03-14.29,5.95-20.74,11.76-6.46,5.81-11.76,14.34-15.9,25.59-4.15,11.25-6.22,26.19-6.22,44.81l-43.15-20.47c0-23.6,4.79-45.73,14.38-66.38,9.59-20.65,24.02-37.34,43.29-50.06,19.27-12.72,43.56-19.08,72.88-19.08,23.42,0,42.5,3.97,57.26,11.89,14.75,7.93,26.23,17.98,34.44,30.15,8.2,12.17,14.06,24.85,17.56,38.03,3.5,13.19,5.62,25.22,6.36,36.1,.73,10.88,1.11,18.81,1.11,23.79v167.62h-76.34Z"/>
        <path class="cls-1" d="M1555.8,500.45c-21.39,0-39.51-4.11-54.35-12.31-14.85-8.2-26.09-19.18-33.74-32.92-7.65-13.74-11.48-28.9-11.48-45.5,0-13.83,2.12-26.46,6.36-37.89,4.24-11.43,11.11-21.53,20.61-30.29,9.49-8.76,22.27-16.09,38.31-21.99,11.06-4.05,24.25-7.65,39.55-10.79,15.3-3.13,32.64-6.13,52-8.99,19.36-2.86,40.66-6.04,63.89-9.54l-27.11,14.94c0-17.7-4.24-30.7-12.72-39-8.48-8.3-22.68-12.45-42.6-12.45-11.06,0-22.59,2.68-34.57,8.02-11.99,5.35-20.38,14.85-25.17,28.49l-68.04-21.57c7.56-24.71,21.76-44.81,42.6-60.3,20.84-15.49,49.23-23.23,85.19-23.23,26.37,0,49.79,4.06,70.26,12.17,20.47,8.12,35.96,22.13,46.47,42.04,5.9,11.06,9.4,22.13,10.51,33.19,1.11,11.06,1.66,23.42,1.66,37.06v182.55h-65.83v-61.4l9.4,12.72c-14.57,20.1-30.29,34.62-47.16,43.56-16.87,8.94-38.22,13.41-64.03,13.41Zm16.04-59.19c13.83,0,25.49-2.44,34.99-7.33,9.49-4.88,17.05-10.46,22.68-16.73,5.62-6.27,9.45-11.52,11.48-15.77,3.87-8.11,6.13-17.56,6.78-28.35,.64-10.79,.97-19.78,.97-26.97l22.13,5.53c-22.31,3.69-40.38,6.78-54.21,9.27-13.83,2.49-24.99,4.75-33.47,6.78-8.48,2.03-15.95,4.24-22.4,6.64-7.38,2.95-13.32,6.13-17.84,9.54-4.52,3.41-7.84,7.15-9.96,11.2-2.12,4.06-3.18,8.57-3.18,13.55,0,6.82,1.7,12.68,5.12,17.56,3.41,4.89,8.25,8.62,14.52,11.2,6.27,2.58,13.73,3.87,22.4,3.87Z"/>
        <path class="cls-1" d="M1795.33,492.15V193.42h66.38v73.02l-7.19-9.4c3.87-10.32,9.03-19.73,15.49-28.21,6.45-8.48,14.38-15.49,23.79-21.02,7.19-4.43,15.03-7.88,23.51-10.37,8.48-2.49,17.24-4.05,26.28-4.7,9.03-.64,18.07-.42,27.11,.69v70.26c-8.3-2.58-17.94-3.46-28.9-2.63-10.97,.83-20.88,3.37-29.73,7.61-8.85,4.06-16.32,9.45-22.4,16.18-6.08,6.73-10.7,14.66-13.83,23.79-3.14,9.13-4.7,19.41-4.7,30.84v152.68h-75.79Z"/>
        <path class="cls-1" d="M2173.7,500.45c-29.51,0-56.11-5.21-79.8-15.63-23.7-10.42-43.15-25.35-58.36-44.81-15.21-19.45-24.85-42.64-28.9-69.56l78.55-11.62c5.53,22.87,16.96,40.48,34.3,52.83,17.33,12.36,37.06,18.53,59.19,18.53,12.35,0,24.34-1.94,35.96-5.81,11.62-3.87,21.16-9.59,28.63-17.15,7.47-7.56,11.2-16.87,11.2-27.94,0-4.05-.6-7.97-1.8-11.76-1.2-3.78-3.18-7.33-5.95-10.65-2.77-3.32-6.69-6.45-11.76-9.4-5.07-2.95-11.48-5.62-19.22-8.02l-103.45-30.43c-7.74-2.21-16.73-5.35-26.97-9.4-10.23-4.05-20.15-9.86-29.73-17.43-9.59-7.56-17.56-17.56-23.92-30.01-6.36-12.45-9.54-28.17-9.54-47.16,0-26.73,6.73-48.96,20.19-66.66,13.46-17.7,31.44-30.88,53.94-39.55,22.49-8.67,47.39-12.91,74.68-12.72,27.47,.37,52,5.07,73.57,14.11,21.57,9.04,39.64,22.17,54.21,39.41,14.56,17.24,25.08,38.31,31.53,63.2l-81.32,13.83c-2.95-12.91-8.39-23.79-16.32-32.64-7.93-8.85-17.38-15.58-28.35-20.19-10.97-4.61-22.45-7.1-34.44-7.47-11.8-.37-22.91,1.25-33.33,4.84-10.42,3.6-18.9,8.81-25.45,15.63-6.55,6.82-9.82,14.94-9.82,24.34,0,8.67,2.67,15.72,8.02,21.16,5.35,5.44,12.07,9.82,20.19,13.14,8.11,3.32,16.41,6.09,24.89,8.3l69.15,18.81c10.32,2.77,21.75,6.41,34.3,10.93,12.54,4.52,24.57,10.79,36.1,18.81,11.52,8.02,21.02,18.58,28.49,31.67,7.47,13.1,11.2,29.69,11.2,49.79,0,21.39-4.47,40.06-13.41,56.01-8.95,15.95-20.98,29.14-36.1,39.55-15.12,10.42-32.22,18.21-51.31,23.37-19.08,5.16-38.77,7.75-59.05,7.75Z"/>
        <path class="cls-1" d="M2361.23,251.51v-58.09h212.43v58.09h-212.43Zm212.43,240.64c-20.65,3.87-40.89,5.58-60.71,5.12-19.82-.46-37.53-3.97-53.11-10.51-15.59-6.54-27.43-17.1-35.54-31.67-7.38-13.64-11.25-27.52-11.62-41.63-.37-14.11-.55-30.1-.55-47.99V110.45h75.23v250.6c0,11.62,.14,22.08,.41,31.39,.28,9.31,2.17,16.73,5.67,22.27,6.64,10.51,17.24,16.23,31.81,17.15,14.56,.93,30.7,.19,48.4-2.21v62.51Z"/>
        <path class="cls-1" d="M2757.86,500.45c-30.06,0-56.42-6.73-79.11-20.19-22.68-13.46-40.34-32.04-52.97-55.73-12.63-23.69-18.95-50.94-18.95-81.73s6.45-58.59,19.36-82.29c12.9-23.69,30.7-42.18,53.38-55.46,22.68-13.28,48.77-19.91,78.28-19.91s56.47,6.73,79.25,20.19c22.77,13.46,40.52,32.04,53.24,55.73,12.72,23.7,19.08,50.94,19.08,81.73s-6.41,58.32-19.22,82.01c-12.82,23.7-30.61,42.23-53.38,55.6-22.78,13.37-49.1,20.05-78.97,20.05Zm0-70.26c24.16,0,42.18-8.16,54.07-24.48s17.84-37.29,17.84-62.93-6.04-47.76-18.12-63.62c-12.08-15.86-30.01-23.79-53.8-23.79-16.41,0-29.87,3.69-40.38,11.06-10.51,7.38-18.3,17.61-23.37,30.7-5.07,13.1-7.61,28.31-7.61,45.64,0,26.74,6.04,47.99,18.12,63.76,12.08,15.77,29.83,23.65,53.24,23.65Z"/>
        <path class="cls-1" d="M2970.28,492.15V193.42h66.38v73.02l-7.19-9.4c3.87-10.32,9.03-19.73,15.49-28.21,6.45-8.48,14.38-15.49,23.79-21.02,7.19-4.43,15.03-7.88,23.51-10.37,8.48-2.49,17.24-4.05,26.28-4.7,9.03-.64,18.07-.42,27.11,.69v70.26c-8.3-2.58-17.94-3.46-28.9-2.63-10.97,.83-20.88,3.37-29.73,7.61-8.85,4.06-16.32,9.45-22.4,16.18-6.08,6.73-10.7,14.66-13.83,23.79-3.14,9.13-4.7,19.41-4.7,30.84v152.68h-75.79Z"/>
        <path class="cls-1" d="M3331.51,500.45c-30.61,0-57.58-6.6-80.9-19.78-23.33-13.18-41.58-31.35-54.76-54.49-13.19-23.14-19.78-49.65-19.78-79.52,0-32.64,6.45-61.03,19.36-85.19,12.91-24.15,30.7-42.92,53.38-56.29,22.68-13.37,48.77-20.05,78.28-20.05,31.35,0,57.99,7.38,79.94,22.13,21.94,14.75,38.17,35.5,48.68,62.23,10.51,26.74,14.2,58.18,11.06,94.32h-74.41v-27.66c0-30.43-4.84-52.32-14.52-65.69-9.68-13.37-25.49-20.05-47.44-20.05-25.63,0-44.49,7.79-56.56,23.37-12.08,15.58-18.12,38.58-18.12,69.01,0,27.85,6.04,49.37,18.12,64.58,12.07,15.21,29.82,22.82,53.24,22.82,14.75,0,27.38-3.22,37.89-9.68,10.51-6.45,18.53-15.77,24.06-27.94l75.23,21.57c-11.25,27.29-29,48.5-53.24,63.62-24.25,15.12-50.75,22.68-79.52,22.68Zm-99.02-136.64v-55.87h198.04v55.87h-198.04Z"/>
      </g>
    </g>
  </g>
</svg>