<?xml version="1.0" encoding="UTF-8"?>
<svg id="Layer_2" data-name="Layer 2" xmlns="http://www.w3.org/2000/svg" viewBox="0 0 3710.2 4028">
  <g id="Layer_1-2" data-name="Layer 1">
    <path d="M3710.2,3100.34c-358.11,557.96-983.98,927.66-1696.2,927.66C901.7,4028,0,3126.3,0,2014S901.7,0,2014,0c89.97,0,178.56,5.9,265.4,17.35C1416.81,138.44,753.09,879.39,753.09,1775.38c0,980.52,794.86,1775.38,1775.38,1775.38,453.82,0,867.87-170.27,1181.73-450.42Z"/>
    <path d="M2363.47,2051.86c-58.36,33.7-113.55,65.57-168.74,97.43-46.17,26.65-92.31,53.37-138.55,79.9-40.02,22.96-74.36,13.68-97.42-26.15-29.21-50.45-58.4-100.91-87.53-151.4-23.94-41.5-14.83-75.68,26.43-99.51,94.49-54.57,189-109.12,283.5-163.69,6.45-3.72,12.88-7.49,21.67-12.61-5.83-3.73-10.04-6.66-14.46-9.22-96.64-55.84-193.32-111.62-289.97-167.44-42.25-24.4-51.24-58.04-26.8-100.44,29.11-50.5,58.27-100.99,87.51-151.41,22.7-39.14,57.14-48.52,96.29-25.99,97.17,55.92,194.23,112.01,291.35,168.02,4.63,2.67,9.37,5.18,16.72,9.23,0-7.6,0-12.8,0-17.99,0-111.22-.03-222.44,.01-333.66,.02-49.69,24.53-73.94,74.65-73.97,57.37-.03,114.73-.07,172.1,.01,46.82,.07,71.95,25.22,71.98,72.13,.08,110.72,.03,221.45,.03,332.17v21.14c6.66-3.51,11.64-5.93,16.42-8.69,97.1-56.05,194.24-112.01,291.19-168.3,20.16-11.7,41.49-17.69,62.41-6.25,12.85,7.03,25.31,18.33,32.9,30.79,31.37,51.46,60.94,104.03,90.93,156.33,21.7,37.84,12.26,73.24-25.82,95.32-96.98,56.25-194.14,112.18-291.21,168.26-4.63,2.67-9.17,5.51-15.67,9.42,5.99,3.79,10.3,6.73,14.81,9.34,96.2,55.6,192.44,111.14,288.63,166.76,43.06,24.9,51.81,58.32,26.81,101.59-28.91,50.05-57.74,100.14-86.73,150.14-23.09,39.83-57.54,49.05-97.45,26.04-96.69-55.75-193.31-111.62-289.97-167.43-4.69-2.71-9.47-5.27-17.25-9.59,0,7.4,0,12.5,0,17.6,0,111.72,.04,223.44-.02,335.16-.02,47.96-24.92,73.02-72.57,73.08-57.87,.08-115.73,.08-173.6,0-47.69-.06-72.55-25.09-72.57-73.08-.05-111.22-.02-222.44-.02-333.66,0-5.33,0-10.65,0-19.37Z"/>
  </g>
</svg>