<?xml version="1.0" encoding="UTF-8"?>
<svg id="Layer_2" data-name="Layer 2" xmlns="http://www.w3.org/2000/svg" viewBox="0 0 331.86 337.04">
  <g id="Layer_1-2" data-name="Layer 1">
    <path d="M165.79,337.04c-2.38-3.47-4.14-5.32-5.07-7.52-7-16.51-13.46-33.27-20.82-49.62-14.08-31.3-33.74-58.19-64.52-75.04-15.71-8.6-32.16-15.88-48.41-23.46-6.92-3.23-14.28-5.49-21.23-8.65-2.25-1.02-3.84-3.47-5.74-5.27,1.83-1.84,3.32-4.42,5.53-5.42,20.14-9.08,40.72-17.26,60.57-26.92,30.83-15,53.59-38.61,68.31-69.44,9.37-19.62,17.39-39.87,25.97-59.86,1.18-2.75,1.98-6.56,5.65-5.72,2.11,.48,4.27,3.3,5.31,5.57,10.39,22.81,19.7,46.15,30.98,68.5,13.51,26.76,34.97,46.48,61.61,59.86,19.84,9.96,40.53,18.23,60.85,27.24,.91,.4,2.09,.47,2.75,1.1,1.67,1.58,4.36,3.41,4.32,5.1-.04,1.69-2.56,4.03-4.52,4.89-18.26,8.01-36.83,15.33-54.93,23.67-38.7,17.82-65.07,47.57-81.63,86.38-6.71,15.74-13.05,31.64-19.72,47.39-.92,2.16-2.81,3.91-5.27,7.23Z"/>
  </g>
</svg>