<?xml version="1.0" encoding="UTF-8"?>
<svg id="Layer_2" data-name="Layer 2" xmlns="http://www.w3.org/2000/svg" viewBox="0 0 3245.61 2520.5">
  <defs>
    <style>
      .cls-1 {
        fill: #fff;
      }
    </style>
  </defs>
  <g id="Layer_1-2" data-name="Layer 1">
    <g>
      <path class="cls-1" d="M2451.8,1385.45c-160.03,249.34-439.71,414.55-757.98,414.55-497.06,0-900-402.94-900-900S1196.76,0,1693.82,0c40.21,0,79.79,2.64,118.6,7.75-385.47,54.11-682.06,385.22-682.06,785.61,0,438.17,355.2,793.37,793.37,793.37,202.8,0,387.83-76.09,528.08-201.28Z"/>
      <path class="cls-1" d="M1849.98,916.92c-26.08,15.06-50.74,29.3-75.41,43.54-20.63,11.91-41.25,23.85-61.92,35.7-17.88,10.26-33.23,6.11-43.53-11.68-13.05-22.54-26.1-45.09-39.11-67.66-10.7-18.55-6.63-33.82,11.81-44.47,42.23-24.39,84.46-48.76,126.69-73.15,2.88-1.66,5.75-3.35,9.68-5.63-2.61-1.67-4.49-2.98-6.46-4.12-43.19-24.95-86.39-49.88-129.58-74.82-18.88-10.9-22.9-25.94-11.98-44.89,13.01-22.57,26.04-45.13,39.11-67.66,10.14-17.49,25.54-21.68,43.03-11.62,43.42,24.99,86.8,50.06,130.2,75.08,2.07,1.19,4.19,2.31,7.47,4.12,0-3.4,0-5.72,0-8.04,0-49.7-.01-99.4,0-149.11,0-22.2,10.96-33.04,33.36-33.06,25.64-.01,51.27-.03,76.91,0,20.92,.03,32.15,11.27,32.17,32.23,.03,49.48,.01,98.96,.01,148.44v9.45c2.97-1.57,5.2-2.65,7.34-3.88,43.39-25.05,86.8-50.06,130.13-75.21,9.01-5.23,18.54-7.9,27.89-2.79,5.74,3.14,11.31,8.19,14.7,13.76,14.02,23,27.23,46.49,40.64,69.86,9.7,16.91,5.48,32.73-11.54,42.6-43.34,25.14-86.75,50.13-130.13,75.19-2.07,1.19-4.1,2.46-7,4.21,2.67,1.69,4.6,3.01,6.62,4.17,42.99,24.85,85.99,49.67,128.98,74.52,19.24,11.13,23.15,26.06,11.98,45.4-12.92,22.36-25.8,44.75-38.76,67.09-10.32,17.8-25.71,21.92-43.55,11.64-43.21-24.91-86.39-49.88-129.58-74.82-2.1-1.21-4.23-2.36-7.71-4.28,0,3.3,0,5.59,0,7.87,0,49.92,.02,99.85,0,149.77-.01,21.43-11.13,32.63-32.43,32.66-25.86,.04-51.72,.03-77.58,0-21.31-.03-32.42-11.21-32.43-32.66-.02-49.7,0-99.4,0-149.11,0-2.38,0-4.76,0-8.66Z"/>
    </g>
    <g>
      <path class="cls-1" d="M0,2510.9v-432H81.6v355.8h186v76.2H0Z"/>
      <path class="cls-1" d="M439.19,2520.5c-25.4,0-46.1-4.3-62.1-12.9-16-8.6-28.45-19.5-37.35-32.7-8.9-13.2-15.25-26.95-19.05-41.25-3.8-14.3-6.1-27.35-6.9-39.15-.8-11.8-1.2-20.4-1.2-25.8v-181.8h82.8v153c0,7.4,.4,16.85,1.2,28.35,.8,11.5,3.3,23.05,7.5,34.65,4.2,11.6,11.05,21.3,20.55,29.1,9.5,7.8,22.95,11.7,40.35,11.7,7,0,14.5-1.1,22.5-3.3,8-2.2,15.5-6.45,22.5-12.75,7-6.3,12.75-15.6,17.25-27.9,4.5-12.3,6.75-28.45,6.75-48.45l46.8,22.2c0,25.6-5.2,49.6-15.6,72-10.4,22.4-26.05,40.5-46.95,54.3-20.9,13.8-47.25,20.7-79.05,20.7Zm105-9.6v-107.4h-10.2v-216.6h82.2v324h-72Z"/>
      <path class="cls-1" d="M699.58,2510.9v-324h72.6v107.4h10.2v216.6h-82.8Zm221.4,0v-153c0-7.4-.4-16.85-1.2-28.35-.8-11.5-3.3-23.05-7.5-34.65-4.2-11.6-11.05-21.3-20.55-29.1-9.5-7.8-22.95-11.7-40.35-11.7-7,0-14.5,1.1-22.5,3.3-8,2.2-15.5,6.45-22.5,12.75-7,6.3-12.75,15.55-17.25,27.75-4.5,12.2-6.75,28.4-6.75,48.6l-46.8-22.2c0-25.6,5.2-49.6,15.6-72,10.4-22.4,26.05-40.5,46.95-54.3,20.9-13.8,47.25-20.7,79.05-20.7,25.4,0,46.1,4.3,62.1,12.9,16,8.6,28.45,19.5,37.35,32.7,8.9,13.2,15.25,26.95,19.05,41.25,3.8,14.3,6.1,27.35,6.9,39.15,.8,11.8,1.2,20.4,1.2,25.8v181.8h-82.8Z"/>
      <path class="cls-1" d="M1171.77,2519.9c-23.2,0-42.85-4.45-58.95-13.35-16.1-8.9-28.3-20.8-36.6-35.7-8.3-14.9-12.45-31.35-12.45-49.35,0-15,2.3-28.7,6.9-41.1,4.6-12.4,12.05-23.35,22.35-32.85,10.3-9.5,24.15-17.45,41.55-23.85,12-4.4,26.3-8.3,42.9-11.7,16.6-3.4,35.4-6.65,56.4-9.75,21-3.1,44.1-6.55,69.3-10.35l-29.4,16.2c0-19.2-4.6-33.3-13.8-42.3-9.2-9-24.6-13.5-46.2-13.5-12,0-24.5,2.9-37.5,8.7-13,5.8-22.1,16.1-27.3,30.9l-73.8-23.4c8.2-26.8,23.6-48.6,46.2-65.4,22.6-16.8,53.4-25.2,92.4-25.2,28.6,0,54,4.4,76.2,13.2,22.2,8.8,39,24,50.4,45.6,6.4,12,10.2,24,11.4,36s1.8,25.4,1.8,40.2v198h-71.4v-66.6l10.2,13.8c-15.8,21.8-32.85,37.55-51.15,47.25-18.3,9.7-41.45,14.55-69.45,14.55Zm17.4-64.2c15,0,27.65-2.65,37.95-7.95,10.3-5.3,18.5-11.35,24.6-18.15,6.1-6.8,10.25-12.5,12.45-17.1,4.2-8.8,6.65-19.05,7.35-30.75,.7-11.7,1.05-21.45,1.05-29.25l24,6c-24.2,4-43.8,7.35-58.8,10.05-15,2.7-27.1,5.15-36.3,7.35-9.2,2.2-17.3,4.6-24.3,7.2-8,3.2-14.45,6.65-19.35,10.35-4.9,3.7-8.5,7.75-10.8,12.15-2.3,4.4-3.45,9.3-3.45,14.7,0,7.4,1.85,13.75,5.55,19.05,3.7,5.3,8.95,9.35,15.75,12.15,6.8,2.8,14.9,4.2,24.3,4.2Z"/>
      <path class="cls-1" d="M1431.57,2510.9v-324h72v79.2l-7.8-10.2c4.2-11.2,9.8-21.4,16.8-30.6,7-9.2,15.6-16.8,25.8-22.8,7.8-4.8,16.3-8.55,25.5-11.25,9.2-2.7,18.7-4.4,28.5-5.1,9.8-.7,19.6-.45,29.4,.75v76.2c-9-2.8-19.45-3.75-31.35-2.85-11.9,.9-22.65,3.65-32.25,8.25-9.6,4.4-17.7,10.25-24.3,17.55-6.6,7.3-11.6,15.9-15,25.8-3.4,9.9-5.1,21.05-5.1,33.45v165.6h-82.2Z"/>
      <path class="cls-1" d="M1841.96,2519.9c-32,0-60.85-5.65-86.55-16.95-25.7-11.3-46.8-27.5-63.3-48.6-16.5-21.1-26.95-46.25-31.35-75.45l85.2-12.6c6,24.8,18.4,43.9,37.2,57.3,18.8,13.4,40.2,20.1,64.2,20.1,13.4,0,26.4-2.1,39-6.3,12.6-4.2,22.95-10.4,31.05-18.6,8.1-8.2,12.15-18.3,12.15-30.3,0-4.4-.65-8.65-1.95-12.75-1.3-4.1-3.45-7.95-6.45-11.55-3-3.6-7.25-7-12.75-10.2-5.5-3.2-12.45-6.1-20.85-8.7l-112.2-33c-8.4-2.4-18.15-5.8-29.25-10.2-11.1-4.4-21.85-10.7-32.25-18.9-10.4-8.2-19.05-19.05-25.95-32.55s-10.35-30.55-10.35-51.15c0-29,7.3-53.1,21.9-72.3,14.6-19.2,34.1-33.5,58.5-42.9,24.4-9.4,51.4-14,81-13.8,29.8,.4,56.4,5.5,79.8,15.3,23.4,9.8,43,24.05,58.8,42.75,15.8,18.7,27.2,41.55,34.2,68.55l-88.2,15c-3.2-14-9.1-25.8-17.7-35.4-8.6-9.6-18.85-16.9-30.75-21.9-11.9-5-24.35-7.7-37.35-8.1-12.8-.4-24.85,1.35-36.15,5.25-11.3,3.9-20.5,9.55-27.6,16.95-7.1,7.4-10.65,16.2-10.65,26.4,0,9.4,2.9,17.05,8.7,22.95,5.8,5.9,13.1,10.65,21.9,14.25,8.8,3.6,17.8,6.6,27,9l75,20.4c11.2,3,23.6,6.95,37.2,11.85,13.6,4.9,26.65,11.7,39.15,20.4,12.5,8.7,22.8,20.15,30.9,34.35,8.1,14.2,12.15,32.2,12.15,54,0,23.2-4.85,43.45-14.55,60.75-9.7,17.3-22.75,31.6-39.15,42.9-16.4,11.3-34.95,19.75-55.65,25.35-20.7,5.6-42.05,8.4-64.05,8.4Z"/>
      <path class="cls-1" d="M2045.36,2249.9v-63h230.4v63h-230.4Zm230.4,261c-22.4,4.2-44.35,6.05-65.85,5.55-21.5-.5-40.7-4.3-57.6-11.4-16.9-7.1-29.75-18.55-38.55-34.35-8-14.8-12.2-29.85-12.6-45.15-.4-15.3-.6-32.65-.6-52.05v-276.6h81.6v271.8c0,12.6,.15,23.95,.45,34.05,.3,10.1,2.35,18.15,6.15,24.15,7.2,11.4,18.7,17.6,34.5,18.6,15.8,1,33.3,.2,52.5-2.4v67.8Z"/>
      <path class="cls-1" d="M2475.55,2519.9c-32.6,0-61.2-7.3-85.8-21.9-24.6-14.6-43.75-34.75-57.45-60.45-13.7-25.7-20.55-55.25-20.55-88.65s7-63.55,21-89.25c14-25.7,33.3-45.75,57.9-60.15,24.6-14.4,52.9-21.6,84.9-21.6s61.25,7.3,85.95,21.9c24.7,14.6,43.95,34.75,57.75,60.45,13.8,25.7,20.7,55.25,20.7,88.65s-6.95,63.25-20.85,88.95c-13.9,25.7-33.2,45.8-57.9,60.3-24.7,14.5-53.25,21.75-85.65,21.75Zm0-76.2c26.2,0,45.75-8.85,58.65-26.55s19.35-40.45,19.35-68.25-6.55-51.8-19.65-69c-13.1-17.2-32.55-25.8-58.35-25.8-17.8,0-32.4,4-43.8,12-11.4,8-19.85,19.1-25.35,33.3-5.5,14.2-8.25,30.7-8.25,49.5,0,29,6.55,52.05,19.65,69.15,13.1,17.1,32.35,25.65,57.75,25.65Z"/>
      <path class="cls-1" d="M2705.95,2510.9v-324h72v79.2l-7.8-10.2c4.2-11.2,9.8-21.4,16.8-30.6,7-9.2,15.6-16.8,25.8-22.8,7.8-4.8,16.3-8.55,25.5-11.25,9.2-2.7,18.7-4.4,28.5-5.1,9.8-.7,19.6-.45,29.4,.75v76.2c-9-2.8-19.45-3.75-31.35-2.85-11.9,.9-22.65,3.65-32.25,8.25-9.6,4.4-17.7,10.25-24.3,17.55-6.6,7.3-11.6,15.9-15,25.8-3.4,9.9-5.1,21.05-5.1,33.45v165.6h-82.2Z"/>
      <path class="cls-1" d="M3097.74,2519.9c-33.2,0-62.45-7.15-87.75-21.45-25.3-14.3-45.1-34-59.4-59.1-14.3-25.1-21.45-53.85-21.45-86.25,0-35.4,7-66.2,21-92.4,14-26.2,33.3-46.55,57.9-61.05,24.6-14.5,52.9-21.75,84.9-21.75,34,0,62.9,8,86.7,24,23.8,16,41.4,38.5,52.8,67.5,11.4,29,15.4,63.1,12,102.3h-80.7v-30c0-33-5.25-56.75-15.75-71.25-10.5-14.5-27.65-21.75-51.45-21.75-27.8,0-48.25,8.45-61.35,25.35-13.1,16.9-19.65,41.85-19.65,74.85,0,30.2,6.55,53.55,19.65,70.05,13.1,16.5,32.35,24.75,57.75,24.75,16,0,29.7-3.5,41.1-10.5,11.4-7,20.1-17.1,26.1-30.3l81.6,23.4c-12.2,29.6-31.45,52.6-57.75,69-26.3,16.4-55.05,24.6-86.25,24.6Zm-107.4-148.2v-60.6h214.8v60.6h-214.8Z"/>
    </g>
  </g>
</svg>